<svg viewBox="0 0 500 500" xmlns="http://www.w3.org/2000/svg">
  <!-- Background circle -->
  <circle cx="250" cy="250" r="240" fill="white" stroke="none"/>
  
  <!-- Blue curved shape (left) -->
  <path d="M 80 150 Q 100 200 120 280 Q 130 320 140 350" fill="none" stroke="#006B9E" stroke-width="35" stroke-linecap="round"/>
  
  <!-- Orange curved shape (top right) -->
  <path d="M 350 80 Q 380 120 400 180 Q 420 240 400 300" fill="none" stroke="#FF9500" stroke-width="40" stroke-linecap="round"/>
  
  <!-- Green curved shape (bottom) -->
  <path d="M 150 380 Q 220 410 280 420 Q 350 430 400 380" fill="none" stroke="#6BA821" stroke-width="45" stroke-linecap="round"/>
  
  <!-- Blue circle (top left) -->
  <circle cx="150" cy="120" r="25" fill="#006B9E"/>
  
  <!-- Orange circle (right) -->
  <circle cx="420" cy="160" r="20" fill="#FF9500"/>
  
  <!-- Green circle (bottom left) -->
  <circle cx="120" cy="420" r="30" fill="#589C1D"/>
  
  <!-- Green lightning bolt (center) -->
  <polygon points="250,180 280,260 260,280 320,380 240,300 270,260" fill="#9BC63D"/>
  
  <!-- Additional orange accent (right side) -->
  <path d="M 420 240 L 460 280 L 440 300 Z" fill="#FF9500"/>
  
  <!-- Additional green accent (bottom right) -->
  <path d="M 380 380 Q 400 400 420 420" fill="none" stroke="#9BC63D" stroke-width="20" stroke-linecap="round"/>
</svg>